<?xml version="1.0" standalone="no"?><!DOCTYPE svg PUBLIC "-//W3C//DTD SVG 1.1//EN" "http://www.w3.org/Graphics/SVG/1.1/DTD/svg11.dtd"><svg t="1558749921010" class="icon" style="" viewBox="0 0 1024 1024" version="1.1" xmlns="http://www.w3.org/2000/svg" p-id="3858" xmlns:xlink="http://www.w3.org/1999/xlink" width="200" height="200"><defs><style type="text/css"></style></defs><path d="M512 981.333333C252.8 981.333333 42.666667 771.2 42.666667 512S252.8 42.666667 512 42.666667s469.333333 210.133333 469.333333 469.333333-210.133333 469.333333-469.333333 469.333333z m0-85.333333c212.074667 0 384-171.925333 384-384S724.074667 128 512 128 128 299.925333 128 512s171.925333 384 384 384z m223.850667-313.322667a42.666667 42.666667 0 1 1 81.386666 25.664 320.64 320.64 0 0 1-208.896 208.896 42.666667 42.666667 0 0 1-25.664-81.386666 235.328 235.328 0 0 0 153.173334-153.173334z m-447.701334-141.354666a42.666667 42.666667 0 1 1-81.386666-25.664 320.64 320.64 0 0 1 208.896-208.896 42.666667 42.666667 0 1 1 25.664 81.386666 235.328 235.328 0 0 0-153.173334 153.173334zM512 640a128 128 0 1 1 0-256 128 128 0 0 1 0 256z m0-85.333333a42.666667 42.666667 0 1 0 0-85.333334 42.666667 42.666667 0 0 0 0 85.333334z" fill="#ffc773" p-id="3859"></path></svg>