<?xml version="1.0" standalone="no"?><!DOCTYPE svg PUBLIC "-//W3C//DTD SVG 1.1//EN" "http://www.w3.org/Graphics/SVG/1.1/DTD/svg11.dtd"><svg t="1558001636260" class="icon" style="" viewBox="0 0 1024 1024" version="1.1" xmlns="http://www.w3.org/2000/svg" p-id="1420" xmlns:xlink="http://www.w3.org/1999/xlink" width="200" height="200"><defs><style type="text/css"></style></defs><path d="M346.055809 684.696566s-36.623515-75.654465 49.348526-66.866425c0 0 36.195556 28.723717 85.524686 34.42295 0 0 48.210747 3.788283 89.611637-34.816 0 0 68.470949-26.669253 68.452848 41.782303 0 0-17.520485 86.140121-149.034666 85.973333 0.001293 0.001293-108.863354 1.595475-143.903031-60.496161z" fill="#ffc773" p-id="1421" data-spm-anchor-id="a313x.7781069.0.i9" class="selected"></path><path d="M170.920779 425.18497S207.589547 181.656566 476.51884 175.191919c0 0 321.939394-12.929293 316.900848 350.294626 0 0-11.769535 93.180121 37.361778 95.76598 0 0 41.373737 11.636364 49.524363-52.778666 0 0 61.368889-309.926788-196.918303-444.999112-238.876444-124.921535-435.717172 2.585859-484.964848 55.621819 0 0-265.19402 222.562263-62.76396 539.21099 0 0 122.894222 213.421253 430.105859 173.363717 0 0 108.471596-19.868444 168.754424-84.386909l145.788121 140.10699s32.518465 38.220283 70.728404 15.922424c0 0 35.04097-38.211232-7.946343-76.419879L775.917304 719.727192s-42.984727-40.971636-85.97204 4.774788c0 0-226.086788 214.186667-455.347717-45.747717 0 0.001293-93.918384-110.280404-63.676768-253.569293z" p-id="1422"></path></svg>